HIERARCHY
ROOT Spine
{
    OFFSET 0.0 0.0 -0.0
    CHANNELS 6 Xposition Yposition Zposition Zrotation Xrotation Yrotation
    JOINT ShoulderCenter
    {
        OFFSET 0.0 35.180057525634766 0.0
        CHANNELS 3 Zrotation Xrotation Yrotation
        JOINT LeftShoulder
        {
            OFFSET 20.88031005859375 0.0 0.0
            CHANNELS 3 Zrotation Xrotation Yrotation
            JOINT LeftElbow
            {
                OFFSET 25.98353385925293 0.0 0.0
                CHANNELS 3 Zrotation Xrotation Yrotation
                JOINT LeftHand
                {
                    OFFSET 29.441791534423828 0.0 0.0
                    CHANNELS 3 Zrotation Xrotation Yrotation
                    End Site
                    {
                        OFFSET 11.776718139648438 0.0 0.0
                    }
                }
            }
        }
        JOINT RightShoulder
        {
            OFFSET -20.88031005859375 0.0 0.0
            CHANNELS 3 Zrotation Xrotation Yrotation
            JOINT RightElbow
            {
                OFFSET -25.98353385925293 0.0 0.0
                CHANNELS 3 Zrotation Xrotation Yrotation
                JOINT RightHand
                {
                    OFFSET -29.441791534423828 0.0 0.0
                    CHANNELS 3 Zrotation Xrotation Yrotation
                    End Site
                    {
                        OFFSET -11.776718139648438 0.0 0.0
                    }
                }
            }
        }
        End Site
        {
            OFFSET 0.0 14.072021484375 0.0
        }
    }
    JOINT LeftHip
    {
        OFFSET 12.08221076298452 -12.08221076298452 0.0
        CHANNELS 3 Zrotation Xrotation Yrotation
        JOINT LeftKnee
        {
            OFFSET 0.0 -47.02344512939453 0.0
            CHANNELS 3 Zrotation Xrotation Yrotation
            JOINT LeftFoot
            {
                OFFSET 0.0 -42.0914306640625 0.0
                CHANNELS 3 Zrotation Xrotation Yrotation
                End Site
                {
                    OFFSET 0.0 0.0 16.836570739746094
                }
            }
        }
    }
    JOINT RightHip
    {
        OFFSET -12.08221076298452 -12.08221076298452 0.0
        CHANNELS 3 Zrotation Xrotation Yrotation
        JOINT RightKnee
        {
            OFFSET 0.0 -47.02344512939453 0.0
            CHANNELS 3 Zrotation Xrotation Yrotation
            JOINT RightFoot
            {
                OFFSET 0.0 -42.0914306640625 0.0
                CHANNELS 3 Zrotation Xrotation Yrotation
                End Site
                {
                    OFFSET 0.0 0.0 16.836570739746094
                }
            }
        }
    }
}
MOTION
Frames: 4
Frame Time: 0.03333333333333333
-8.216899871826172 -4.237800121307373 -290.3641052246094 0.5028997627004341 2.064413831356286 6.624912494094806 5.9242125241255854e-08 2.694488643837276e-07 -179.2297728271654 -63.816597986816255 -4.447086152427945 15.98466208704037 9.520973197674394e-07 -3.0613583942131326e-06 150.26741533217148 6.3611093629270335e-15 -1.1927080055488188e-15 6.620859447075238e-32 74.5008170898642 -21.018499495091397 -29.983485336926634 -6.312388566751103e-07 -2.588131032456946e-06 -137.87524220320202 0.0 3.975693351829396e-16 0.0 1.5369082257504392 9.22003678117215 -48.519919821226125 7.911049313854324 -8.152272223462107 12.145169301998086 0.0 0.0 -3.51755681323968e-16 0.6571548068792266 11.886476974044786 47.40336164685148 -11.231998174579122 -9.311881074190252 -13.770053757250912 0.0 0.0 2.4661722823066723e-15
-8.226399421691895 -4.230500221252441 -290.36810302734375 0.5044499084249222 2.0595074639498994 6.615513104938571 -1.9903878730741327e-08 2.0953689861580163e-08 -179.60563975812332 -63.84305843659574 -4.706132812477866 16.22101445679148 -8.402024515425941e-08 -1.8085812839456394e-07 150.07053890178943 2.2069531490250793e-32 1.5902773407317582e-15 -1.5902773407317582e-15 74.90744691969108 -20.95279975215593 -29.603482740186294 -1.5225687391495558e-06 -4.212609600363006e-06 -138.19114098374925 6.3611093629270335e-15 0.0 0.0 1.3431874741827028 9.262550238144632 -48.41166969470655 7.932192732724583 -7.623200204960111 11.294802441672003 0.0 0.0 6.2120208622334304e-18 0.6556867061128356 11.898585435928027 47.46723751661748 -11.21197086680306 -9.298076782574448 -13.70361535202889 -5.719772222319179e-34 -2.4848083448933725e-17 -2.6377793586258707e-15
-8.235199928283691 -4.223100185394287 -290.37298583984375 0.504378411756346 2.05256778409317 6.608981357741248 -1.6268628393266157e-08 -3.2566654957552146e-07 -179.88296282460186 -63.49830373476411 -6.229476452926198 16.35659471933662 -5.987965252447989e-06 -1.613655701015312e-06 149.12182930821723 6.361109362927032e-15 8.827812596100317e-32 1.590277340731758e-15 75.15520925557095 -20.83771434423741 -29.378856912767425 -1.4951867474268072e-06 -1.3656262042090978e-07 -138.46075795557408 5.517382872562698e-33 -3.975693351829395e-16 1.590277340731758e-15 1.3050897715437766 9.304726144593795 -48.45704919654732 7.992867707083723 -7.545050202814175 11.158254487847673 1.2042334687673467e-33 4.969616689786745e-17 -2.7767733254183437e-15 0.6609301749073467 11.91324526359197 47.51971605004197 -11.201552071839089 -9.28836821305585 -13.64806605820137 -9.691789494162259e-34 -2.4848083448933722e-17 -4.469549010376953e-15
-8.242599487304688 -4.216099739074707 -290.3782958984375 0.5036887898272843 2.0497551310617963 6.596431169125569 6.129184769404071e-08 1.1052987672948118e-08 179.90317227686415 -72.69958325126994 -9.414995762772637 17.13834622345503 4.5066795617466756e-08 -5.632566418459396e-06 148.31401205147867 -5.517382872562698e-33 1.987846675914698e-16 3.1805546814635168e-15 75.26889531714716 -20.711060369483558 -29.235564814235445 2.6893854473040195e-06 1.366928974474346e-06 -138.6508254944571 0.0 0.0 0.0 1.2733596027847425 9.348327147014091 -48.50556168761272 8.06829614382598 -7.511832244958671 11.094548495293232 0.0 0.0 -2.4397711936421806e-15 0.6611836843324614 11.91990710666399 47.57551874074707 -11.182396702379377 -9.283216698897354 -13.603218858168258 0.0 0.0 -2.787644361927253e-15
